<svg id="svg" version="1.1" xmlns="http://www.w3.org/2000/svg" xmlns:xlink="http://www.w3.org/1999/xlink" width="400" height="400" viewBox="0, 0, 400,400"><g id="svgg"><path id="path0" d="M0.000 200.000 L 0.000 400.000 200.000 400.000 L 400.000 400.000 400.000 200.000 L 400.000 0.000 200.000 0.000 L 0.000 0.000 0.000 200.000 M86.000 53.150 C 86.000 54.893,79.653 54.816,221.547 54.805 L 354.519 54.796 355.827 55.793 C 357.730 57.245,357.911 58.326,358.161 69.800 C 358.287 75.520,358.507 81.775,358.651 83.700 L 358.913 87.200 360.066 87.200 C 361.886 87.200,362.024 88.190,362.449 104.200 C 363.155 130.798,363.006 136.511,361.591 137.220 C 360.290 137.872,355.128 138.545,350.309 138.690 C 343.501 138.896,341.228 137.750,341.205 134.100 C 341.201 133.387,340.972 133.200,340.100 133.199 C 338.279 133.196,337.753 131.095,337.211 121.658 L 336.743 113.517 335.385 112.158 C 334.638 111.411,333.664 110.800,333.221 110.800 C 332.707 110.800,332.348 110.474,332.229 109.900 C 331.809 107.864,331.554 106.062,331.339 103.600 C 331.073 100.565,330.406 99.600,328.571 99.600 C 326.681 99.600,326.000 99.234,326.000 98.217 C 326.000 96.955,325.206 94.773,324.336 93.646 C 323.931 93.121,323.600 92.086,323.600 91.346 C 323.600 90.082,323.517 90.000,322.240 90.000 C 321.275 90.000,320.262 89.535,318.751 88.400 C 317.551 87.498,316.172 86.800,315.591 86.800 C 314.215 86.800,313.600 86.109,313.600 84.563 C 313.600 83.099,311.612 82.000,308.966 82.000 C 308.186 82.000,307.154 81.782,306.674 81.516 C 306.193 81.250,304.630 80.836,303.200 80.596 L 300.600 80.159 300.400 78.380 L 300.200 76.600 296.600 76.291 C 289.157 75.652,183.652 75.553,182.432 76.183 C 181.258 76.791,180.803 80.460,180.799 89.363 C 180.797 91.492,180.598 92.527,179.999 93.510 C 179.559 94.230,179.200 95.265,179.200 95.810 C 179.200 96.643,179.010 96.800,178.000 96.800 C 176.933 96.800,176.800 96.933,176.800 98.000 C 176.800 99.074,176.929 99.200,178.036 99.200 C 180.680 99.200,180.771 99.639,180.791 112.400 C 180.801 118.670,180.987 131.458,181.205 140.817 C 181.436 150.752,181.459 160.740,181.260 164.817 C 180.872 172.769,181.336 178.345,182.537 180.167 L 183.275 181.286 191.537 181.199 C 205.022 181.058,213.773 181.165,221.200 181.561 C 231.223 182.096,247.371 181.114,248.700 179.890 C 249.217 179.413,249.600 178.589,249.600 177.953 C 249.600 176.534,250.905 175.600,252.889 175.600 C 254.818 175.600,257.482 173.082,257.676 171.076 C 257.791 169.891,257.918 169.791,259.445 169.680 C 261.451 169.533,262.000 168.604,262.000 165.355 C 262.000 164.141,262.222 162.754,262.493 162.274 C 262.763 161.793,263.078 160.234,263.193 158.810 C 263.363 156.678,263.552 156.144,264.257 155.794 C 266.272 154.795,266.316 154.656,266.097 150.028 C 265.893 145.732,265.904 145.659,266.945 144.619 C 267.856 143.708,268.000 143.228,268.000 141.108 C 268.000 137.198,268.582 136.803,274.370 136.787 C 277.897 136.777,279.524 136.590,281.200 136.000 C 285.766 134.394,288.150 136.221,289.032 142.000 C 289.612 145.804,289.862 248.856,289.299 252.586 C 288.788 255.980,283.971 257.516,276.553 256.651 C 275.369 256.513,273.365 256.289,272.100 256.153 C 269.503 255.874,268.800 255.276,268.800 253.347 C 268.800 252.632,268.620 251.936,268.400 251.800 C 268.175 251.661,268.000 249.737,268.000 247.400 C 268.000 245.063,267.825 243.139,267.600 243.000 C 267.380 242.864,267.200 241.894,267.200 240.844 C 267.200 238.803,266.776 238.361,264.306 237.825 C 262.947 237.530,262.945 237.519,262.393 228.800 C 261.901 221.024,261.564 219.600,260.211 219.600 C 257.493 219.600,256.000 218.278,256.000 215.872 C 256.000 214.193,254.733 213.200,252.588 213.200 C 250.040 213.200,248.400 211.500,248.400 208.860 L 248.400 207.681 243.300 207.340 C 240.495 207.153,234.582 207.057,230.161 207.127 C 225.300 207.204,220.792 207.064,218.761 206.773 C 216.658 206.472,209.398 206.268,199.373 206.228 L 183.347 206.165 182.641 207.101 C 182.002 207.948,181.921 209.480,181.782 223.318 C 181.698 231.723,181.524 240.850,181.395 243.600 C 181.266 246.350,181.336 249.500,181.550 250.600 C 181.774 251.751,181.985 264.788,182.046 281.307 C 182.140 306.734,182.223 310.075,182.776 310.554 C 183.764 311.410,188.192 311.634,207.000 311.783 C 217.808 311.869,225.217 312.088,226.200 312.352 C 227.080 312.588,228.320 312.785,228.956 312.790 C 230.377 312.802,231.170 313.776,231.187 315.526 C 231.194 316.256,231.413 317.246,231.674 317.726 C 231.990 318.308,232.124 320.602,232.076 324.597 C 231.989 331.747,231.943 331.823,227.490 332.074 C 225.136 332.207,224.624 332.372,223.998 333.203 C 223.047 334.463,215.305 334.611,213.462 333.404 C 211.903 332.382,207.879 332.125,206.597 332.965 C 205.709 333.547,204.714 333.613,199.284 333.449 C 195.828 333.345,188.950 333.255,184.000 333.249 C 170.315 333.233,170.278 333.233,156.600 332.932 C 142.319 332.618,137.494 332.660,119.000 333.256 C 111.960 333.483,103.989 333.723,101.286 333.789 C 91.905 334.018,88.000 334.741,88.000 336.249 C 88.000 336.814,84.411 337.384,83.223 337.007 C 82.668 336.831,82.395 336.397,82.386 335.673 C 82.359 333.698,80.805 332.362,78.155 332.037 C 74.410 331.576,72.398 330.336,72.407 328.492 C 72.427 324.121,73.218 319.532,74.199 318.088 C 74.749 317.277,75.206 316.161,75.213 315.607 C 75.231 314.183,76.108 313.200,77.360 313.200 C 77.950 313.200,79.550 312.847,80.916 312.416 C 83.149 311.712,85.424 311.587,103.400 311.183 C 114.400 310.936,123.490 310.643,123.600 310.533 C 123.915 310.219,124.225 240.500,124.291 154.881 L 124.351 76.362 123.276 75.939 C 122.540 75.650,115.942 75.596,102.400 75.768 C 88.306 75.947,82.139 75.891,81.000 75.572 C 80.120 75.326,78.590 75.007,77.600 74.862 C 75.803 74.600,75.800 74.597,75.456 72.600 C 75.267 71.500,74.862 69.921,74.556 69.092 C 73.859 67.202,73.793 58.736,74.465 57.474 C 75.142 56.204,76.042 55.627,77.372 55.613 C 78.016 55.606,79.096 55.426,79.772 55.214 C 80.447 55.002,81.495 54.728,82.100 54.606 C 83.004 54.424,83.200 54.173,83.200 53.192 C 83.200 52.096,83.313 52.000,84.600 52.000 C 85.875 52.000,86.000 52.102,86.000 53.150 " stroke="none" fill="#4d6993" fill-rule="evenodd"></path><path id="path1" d="M102.120 57.195 C 88.292 57.348,83.516 57.523,83.149 57.890 C 81.961 59.079,81.600 67.408,82.700 68.243 C 83.259 68.667,87.479 68.784,103.600 68.822 C 116.640 68.853,125.005 69.037,127.200 69.341 L 130.600 69.812 130.896 72.406 C 131.283 75.797,131.311 313.098,130.924 313.722 C 130.761 313.985,130.532 314.920,130.414 315.800 L 130.200 317.400 127.724 317.673 C 126.362 317.823,124.889 318.138,124.450 318.373 C 123.930 318.652,118.885 318.800,109.926 318.801 C 93.303 318.803,83.775 319.318,82.722 320.270 C 81.496 321.380,81.649 330.213,82.900 330.548 C 84.085 330.865,217.310 330.769,221.200 330.448 L 224.200 330.200 224.312 325.593 C 224.391 322.325,224.275 320.784,223.912 320.293 C 223.310 319.479,210.283 318.835,193.400 318.784 C 178.422 318.740,175.845 318.253,175.474 315.400 C 175.359 314.520,175.115 313.080,174.933 312.200 C 174.750 311.320,174.658 285.894,174.730 255.698 L 174.860 200.796 175.730 200.316 C 177.502 199.337,239.047 199.665,246.400 200.692 C 248.466 200.981,248.608 201.073,248.733 202.200 C 248.969 204.319,250.596 206.000,252.411 206.000 C 255.345 206.000,258.399 207.581,258.399 209.100 C 258.400 210.318,258.488 210.400,259.793 210.400 C 261.432 210.400,263.200 213.201,263.200 215.797 C 263.200 217.354,264.132 218.000,266.380 218.000 C 268.699 218.000,268.818 218.644,269.253 233.531 C 269.744 250.316,269.378 248.676,272.699 248.974 C 281.788 249.789,285.507 249.714,286.170 248.702 C 287.226 247.090,286.993 145.260,285.931 144.198 C 285.563 143.830,275.875 143.806,272.893 144.166 C 269.348 144.594,269.723 143.274,269.193 157.175 C 268.738 169.107,268.760 169.012,266.277 169.398 C 263.240 169.870,263.308 169.799,263.062 172.713 C 262.470 179.712,261.869 181.200,259.630 181.200 C 258.781 181.200,257.303 181.556,256.344 181.991 C 255.385 182.426,254.120 182.786,253.533 182.791 C 251.707 182.806,251.200 183.195,251.200 184.581 C 251.200 185.976,250.432 186.903,248.745 187.545 C 247.481 188.026,182.215 188.179,178.642 187.710 C 174.393 187.152,174.816 193.353,174.770 130.953 C 174.732 79.023,174.828 73.408,175.821 69.738 C 176.063 68.844,182.974 68.744,234.000 68.897 C 291.373 69.068,292.800 69.126,292.800 71.291 C 292.800 72.661,293.931 73.200,296.803 73.200 C 297.981 73.200,299.279 73.499,300.077 73.955 C 301.068 74.520,302.595 74.776,306.161 74.975 C 312.176 75.310,313.600 75.838,313.600 77.737 C 313.600 79.190,314.089 79.600,315.821 79.600 C 316.347 79.600,317.795 80.050,319.038 80.600 C 320.282 81.150,321.786 81.600,322.380 81.600 C 323.796 81.600,325.200 83.119,325.200 84.652 C 325.200 86.007,327.058 87.200,329.167 87.200 C 330.444 87.200,330.775 87.887,330.809 90.600 C 330.820 91.480,331.086 92.650,331.400 93.200 C 331.719 93.757,331.978 95.286,331.986 96.653 L 332.000 99.107 334.603 99.386 C 337.831 99.731,337.822 99.715,338.158 105.800 C 338.530 112.531,338.681 113.200,339.826 113.200 C 341.523 113.200,342.800 114.041,342.806 115.164 C 342.809 115.734,343.062 116.920,343.369 117.800 C 343.675 118.680,344.057 121.873,344.217 124.896 C 344.560 131.392,344.229 130.992,349.767 131.582 C 354.130 132.048,354.134 132.047,355.096 131.086 L 356.058 130.124 355.598 99.962 C 355.345 83.373,355.018 68.270,354.869 66.400 L 354.600 63.000 353.200 62.869 C 351.347 62.695,350.400 61.780,350.400 60.165 C 350.400 59.173,350.116 58.652,349.232 58.023 L 348.064 57.191 248.132 57.123 C 193.169 57.086,146.850 57.123,145.200 57.207 C 143.550 57.290,141.390 57.333,140.400 57.302 C 132.629 57.063,117.700 57.021,102.120 57.195 " stroke="none" fill="#06070b" fill-rule="evenodd"></path><path id="path2" d="M81.425 56.000 C 80.452 56.330,79.524 56.735,79.362 56.900 C 79.199 57.065,78.563 57.200,77.947 57.200 C 76.245 57.200,75.961 58.190,76.088 63.697 L 76.200 68.600 77.400 68.721 C 78.060 68.787,79.167 69.102,79.860 69.421 C 80.554 69.739,81.319 70.000,81.560 70.000 C 81.802 70.000,82.006 70.585,82.013 71.300 C 82.044 74.339,81.825 74.295,96.618 74.202 C 103.868 74.156,111.330 73.990,113.200 73.834 C 117.256 73.495,123.585 74.328,124.591 75.334 C 124.948 75.690,125.526 76.143,125.876 76.338 C 126.606 76.747,126.632 78.350,126.276 101.000 C 126.159 108.480,125.952 158.579,125.817 212.331 L 125.570 310.063 124.580 311.631 L 123.590 313.200 117.295 313.235 C 108.054 313.287,96.286 313.565,89.000 313.903 L 82.600 314.200 82.478 315.461 C 82.385 316.419,82.076 316.837,81.191 317.204 C 80.550 317.469,79.819 317.937,79.564 318.243 C 79.310 318.549,78.523 318.800,77.815 318.800 C 75.965 318.800,75.600 319.921,75.600 325.611 L 75.600 330.385 76.700 330.595 C 77.305 330.711,78.970 331.076,80.400 331.406 C 84.339 332.316,222.766 332.308,224.944 331.398 C 225.736 331.067,227.333 330.659,228.492 330.493 L 230.600 330.190 230.712 325.553 C 230.844 320.087,230.503 318.805,228.910 318.789 C 226.765 318.767,224.224 317.101,224.000 315.570 L 223.800 314.200 215.400 314.155 C 191.087 314.026,181.827 313.309,179.600 311.385 C 179.270 311.100,178.460 310.807,177.800 310.733 L 176.600 310.600 176.490 259.200 C 176.371 203.278,176.296 206.000,177.965 206.000 C 179.299 206.000,179.600 205.447,179.600 202.995 C 179.600 201.509,179.731 201.230,180.500 201.082 C 180.995 200.987,180.302 200.884,178.960 200.854 L 176.520 200.800 176.260 204.461 C 175.913 209.349,176.003 310.722,176.356 312.000 C 176.572 312.785,176.929 313.025,178.016 313.118 C 181.175 313.386,183.200 314.369,183.200 315.632 L 183.200 316.800 188.600 316.800 L 194.000 316.800 194.000 315.600 L 194.000 314.400 196.600 314.400 C 199.199 314.400,199.200 314.401,199.200 315.553 C 199.200 317.165,199.384 317.188,212.280 317.195 L 223.559 317.200 225.637 319.161 L 227.714 321.122 227.357 325.623 L 227.000 330.124 225.400 330.755 C 222.544 331.882,84.184 331.940,80.848 330.816 C 79.516 330.367,77.944 330.000,77.357 330.000 C 76.303 330.000,76.292 329.972,76.541 327.900 C 76.680 326.745,76.795 324.765,76.797 323.500 C 76.800 321.224,76.812 321.200,77.973 321.200 C 78.790 321.200,79.222 320.960,79.397 320.409 C 80.105 318.178,82.310 317.200,86.628 317.200 C 88.854 317.200,92.863 317.082,95.537 316.939 L 100.400 316.677 100.400 315.539 L 100.400 314.400 103.600 314.400 L 106.800 314.400 106.800 315.600 C 106.800 316.788,106.822 316.800,109.000 316.800 C 111.154 316.800,111.200 316.776,111.200 315.656 C 111.200 314.254,113.191 313.920,119.369 314.289 L 123.178 314.516 125.353 312.658 C 126.881 311.352,127.881 310.800,128.716 310.800 L 129.904 310.800 130.177 285.900 C 130.327 272.205,130.393 219.425,130.325 168.611 L 130.200 76.222 128.524 75.936 C 125.540 75.427,124.000 73.808,124.000 71.181 L 124.000 70.000 121.100 69.960 C 119.505 69.937,110.190 69.888,100.400 69.849 L 82.600 69.779 80.846 68.790 L 79.093 67.800 79.350 63.267 C 79.635 58.239,79.890 57.484,81.598 56.601 C 82.642 56.061,97.592 56.006,216.552 56.097 L 350.333 56.200 351.550 57.100 C 352.220 57.595,353.225 58.000,353.784 58.000 C 354.681 58.000,354.800 58.166,354.800 59.420 C 354.800 60.201,355.047 61.326,355.348 61.920 C 355.949 63.105,356.220 70.113,356.619 94.800 C 356.745 102.610,357.006 110.260,357.199 111.800 C 357.392 113.340,357.771 118.069,358.041 122.309 L 358.532 130.018 357.452 131.146 C 356.716 131.914,356.266 132.945,356.039 134.380 C 355.609 137.097,355.421 137.188,350.200 137.188 C 344.971 137.188,344.991 137.198,344.669 134.409 C 344.528 133.187,344.059 131.735,343.608 131.125 C 343.126 130.473,342.800 129.410,342.800 128.489 C 342.800 127.640,342.542 126.058,342.226 124.973 C 341.910 123.888,341.595 122.460,341.526 121.800 C 341.418 120.777,341.213 120.582,340.129 120.477 C 338.871 120.355,338.856 120.328,338.596 117.677 C 338.451 116.205,338.155 114.370,337.938 113.600 C 337.722 112.830,337.442 109.680,337.317 106.600 C 337.066 100.409,337.069 100.415,334.376 100.406 C 331.866 100.398,331.339 99.851,331.061 96.967 C 330.740 93.642,330.519 93.200,329.176 93.200 C 327.348 93.200,326.000 92.401,326.000 91.316 C 326.000 89.139,323.978 86.400,322.371 86.400 C 320.518 86.400,320.000 86.014,320.000 84.631 C 320.000 83.179,318.203 82.000,315.991 82.000 C 314.134 82.000,310.400 79.300,310.400 77.957 C 310.400 76.599,308.589 76.284,293.867 75.079 C 289.944 74.758,286.533 74.293,286.287 74.047 C 286.041 73.801,285.268 73.600,284.569 73.600 C 282.272 73.600,280.400 72.547,280.400 71.255 L 280.400 70.121 276.500 69.862 C 271.509 69.532,183.897 69.527,181.900 69.857 C 180.529 70.083,180.400 70.215,180.400 71.390 C 180.400 72.929,179.357 74.000,177.859 74.000 C 177.058 74.000,176.665 74.283,176.332 75.100 C 175.689 76.677,175.822 177.612,176.474 182.448 L 176.938 185.896 179.769 186.248 C 184.450 186.830,247.219 186.667,248.300 186.069 C 248.962 185.704,249.200 185.209,249.200 184.200 C 249.200 182.585,251.369 180.800,253.331 180.800 C 255.175 180.800,256.800 179.393,256.800 177.797 C 256.800 176.491,256.859 176.441,258.700 176.195 C 259.745 176.055,260.814 175.874,261.075 175.792 C 261.654 175.612,262.395 173.083,262.398 171.274 C 262.400 170.022,262.856 168.785,263.668 167.825 C 263.866 167.591,264.570 166.526,265.232 165.458 C 265.894 164.390,266.782 163.425,267.205 163.315 C 268.352 163.015,268.480 162.190,268.838 152.812 C 269.018 148.076,269.388 143.002,269.659 141.538 L 270.153 138.876 275.777 138.605 C 278.869 138.456,282.480 138.394,283.800 138.467 L 286.200 138.600 286.468 141.000 C 286.616 142.320,286.931 143.907,287.168 144.526 C 288.067 146.869,287.739 248.366,286.828 249.860 C 285.999 251.221,280.757 252.062,276.920 251.450 C 276.084 251.317,274.178 251.091,272.685 250.949 C 269.104 250.608,269.311 251.318,268.613 236.937 C 268.283 230.152,268.011 224.558,268.007 224.506 C 268.003 224.454,267.190 224.208,266.200 223.958 C 264.597 223.555,264.400 223.381,264.400 222.372 C 264.400 221.749,264.162 221.096,263.872 220.920 C 263.126 220.468,262.000 217.432,262.000 215.872 C 262.000 214.326,261.395 213.600,260.107 213.600 C 257.434 213.600,255.200 211.390,255.200 208.746 C 255.200 207.388,255.585 207.496,246.849 206.398 C 245.226 206.194,243.195 205.661,242.336 205.214 C 241.478 204.766,240.367 204.400,239.868 204.400 C 238.661 204.400,238.000 203.679,238.000 202.363 C 238.000 200.827,237.761 200.793,227.267 200.860 C 222.060 200.893,218.295 200.995,218.900 201.087 C 219.800 201.223,220.000 201.458,220.000 202.378 C 220.000 204.443,220.624 204.600,228.820 204.600 C 235.153 204.600,236.431 204.700,237.058 205.247 C 237.504 205.636,238.917 205.997,240.600 206.153 C 249.957 207.017,251.200 207.324,251.200 208.767 C 251.200 210.130,251.870 210.800,253.234 210.800 C 253.944 210.800,254.535 211.146,254.976 211.819 C 255.938 213.288,257.969 214.397,259.700 214.399 C 261.134 214.400,261.200 214.459,261.200 215.739 C 261.200 216.475,261.489 217.656,261.842 218.364 C 262.195 219.072,262.626 220.795,262.799 222.195 C 263.149 225.015,263.389 225.600,264.193 225.600 C 265.194 225.600,267.200 227.628,267.200 228.641 C 267.200 229.174,267.374 229.923,267.587 230.305 C 267.799 230.687,268.128 235.169,268.318 240.266 C 268.739 251.570,268.657 251.360,272.820 251.747 C 276.222 252.063,276.400 252.147,276.400 253.436 C 276.400 254.633,277.146 254.974,279.003 254.626 C 280.135 254.414,280.400 254.183,280.400 253.411 C 280.400 252.422,280.492 252.396,285.800 251.878 C 287.940 251.669,288.360 249.253,288.485 236.400 C 288.803 203.805,288.365 146.306,287.782 144.068 C 287.462 142.838,287.200 141.178,287.200 140.378 C 287.200 137.576,286.707 137.438,277.743 137.726 C 273.422 137.865,269.799 138.067,269.692 138.175 C 269.154 138.712,268.402 146.289,268.154 153.660 L 267.876 161.920 265.553 162.377 C 263.013 162.877,263.182 162.618,262.653 166.800 C 261.760 173.862,261.435 174.800,259.883 174.800 C 257.526 174.800,255.200 176.287,255.200 177.793 C 255.200 179.230,254.700 179.600,252.758 179.600 C 250.971 179.600,248.000 182.479,248.000 184.211 L 248.000 185.521 243.500 185.783 C 241.025 185.927,226.220 185.989,210.600 185.922 L 182.200 185.800 182.000 184.551 C 181.733 182.887,179.097 180.000,177.844 180.000 C 176.374 180.000,176.426 181.833,176.372 127.822 C 176.320 74.381,176.274 76.000,177.836 76.000 C 179.155 76.000,181.576 74.962,182.683 73.922 C 183.561 73.097,183.741 73.088,192.289 73.441 C 202.314 73.854,207.127 73.869,245.600 73.609 C 266.533 73.468,274.161 73.540,275.200 73.887 C 276.530 74.333,282.095 74.835,294.600 75.640 C 305.834 76.363,306.181 76.427,306.333 77.800 C 306.525 79.521,307.477 80.399,309.162 80.407 C 310.030 80.411,311.393 80.884,312.600 81.600 C 313.700 82.252,315.080 82.789,315.667 82.793 C 317.501 82.805,318.000 83.193,318.000 84.607 C 318.000 86.078,320.312 87.600,322.547 87.600 C 323.774 87.600,324.800 89.393,324.800 91.538 C 324.800 93.081,325.556 93.633,328.093 93.943 L 330.200 94.200 330.400 96.933 C 330.629 100.055,331.236 100.796,333.576 100.806 C 335.989 100.817,336.149 101.298,337.213 111.800 C 337.459 114.220,337.819 117.460,338.014 119.000 C 338.210 120.540,338.487 123.015,338.631 124.500 C 338.888 127.149,338.915 127.200,340.047 127.200 C 341.102 127.200,341.200 127.321,341.200 128.626 C 341.200 129.703,341.479 130.287,342.344 131.014 C 343.265 131.789,343.539 132.420,343.756 134.262 C 344.150 137.614,344.123 137.600,350.069 137.600 C 357.205 137.600,357.542 137.399,358.130 132.800 C 358.179 132.417,358.734 132.156,359.664 132.078 C 362.002 131.883,362.168 131.025,361.644 121.862 C 361.400 117.594,361.200 113.809,361.200 113.451 C 361.200 112.999,360.844 112.800,360.034 112.800 C 358.795 112.800,358.236 110.143,358.478 105.400 C 358.558 103.826,357.918 93.421,357.186 84.400 C 356.981 81.870,356.808 76.830,356.803 73.200 C 356.792 66.373,355.983 57.943,355.252 57.063 C 354.035 55.596,351.404 55.567,215.497 55.482 C 98.801 55.410,82.985 55.471,81.425 56.000 M190.700 200.700 C 195.595 200.763,203.605 200.763,208.500 200.700 C 213.395 200.636,209.390 200.584,199.600 200.584 C 189.810 200.584,185.805 200.636,190.700 200.700 " stroke="none" fill="#384559" fill-rule="evenodd"></path><path id="path3" d="M83.200 53.192 C 83.200 54.173,83.004 54.424,82.100 54.606 C 81.495 54.728,80.447 55.002,79.772 55.214 C 79.096 55.426,78.016 55.606,77.372 55.613 C 76.042 55.627,75.142 56.204,74.465 57.474 C 73.793 58.736,73.859 67.202,74.556 69.092 C 74.862 69.921,75.267 71.500,75.456 72.600 C 75.800 74.597,75.803 74.600,77.600 74.862 C 78.590 75.007,80.120 75.326,81.000 75.572 C 82.139 75.891,88.306 75.947,102.400 75.768 C 115.942 75.596,122.540 75.650,123.276 75.939 L 124.351 76.362 124.291 154.881 C 124.225 240.500,123.915 310.219,123.600 310.533 C 123.490 310.643,114.400 310.936,103.400 311.183 C 85.424 311.587,83.149 311.712,80.916 312.416 C 79.550 312.847,77.950 313.200,77.360 313.200 C 76.108 313.200,75.231 314.183,75.213 315.607 C 75.206 316.161,74.749 317.277,74.199 318.088 C 73.218 319.532,72.427 324.121,72.407 328.492 C 72.398 330.336,74.410 331.576,78.155 332.037 C 80.805 332.362,82.359 333.698,82.386 335.673 C 82.395 336.397,82.668 336.831,83.223 337.007 C 84.411 337.384,88.000 336.814,88.000 336.249 C 88.000 334.741,91.905 334.018,101.286 333.789 C 103.989 333.723,111.960 333.483,119.000 333.256 C 137.494 332.660,142.319 332.618,156.600 332.932 C 170.278 333.233,170.315 333.233,184.000 333.249 C 188.950 333.255,195.828 333.345,199.284 333.449 C 204.714 333.613,205.709 333.547,206.597 332.965 C 207.879 332.125,211.903 332.382,213.462 333.404 C 215.305 334.611,223.047 334.463,223.998 333.203 C 224.624 332.372,225.136 332.207,227.490 332.074 C 231.943 331.823,231.989 331.747,232.076 324.597 C 232.124 320.602,231.990 318.308,231.674 317.726 C 231.413 317.246,231.194 316.256,231.187 315.526 C 231.170 313.776,230.377 312.802,228.956 312.790 C 228.320 312.785,227.080 312.588,226.200 312.352 C 225.217 312.088,217.808 311.869,207.000 311.783 C 188.192 311.634,183.764 311.410,182.776 310.554 C 182.223 310.075,182.140 306.734,182.046 281.307 C 181.985 264.788,181.774 251.751,181.550 250.600 C 181.336 249.500,181.266 246.350,181.395 243.600 C 181.524 240.850,181.698 231.723,181.782 223.318 C 181.921 209.480,182.002 207.948,182.641 207.101 L 183.347 206.165 199.373 206.228 C 209.398 206.268,216.658 206.472,218.761 206.773 C 220.792 207.064,225.300 207.204,230.161 207.127 C 234.582 207.057,240.495 207.153,243.300 207.340 L 248.400 207.681 248.400 208.860 C 248.400 211.500,250.040 213.200,252.588 213.200 C 254.733 213.200,256.000 214.193,256.000 215.872 C 256.000 218.278,257.493 219.600,260.211 219.600 C 261.564 219.600,261.901 221.024,262.393 228.800 C 262.945 237.519,262.947 237.530,264.306 237.825 C 266.776 238.361,267.200 238.803,267.200 240.844 C 267.200 241.894,267.380 242.864,267.600 243.000 C 267.825 243.139,268.000 245.063,268.000 247.400 C 268.000 249.737,268.175 251.661,268.400 251.800 C 268.620 251.936,268.800 252.632,268.800 253.347 C 268.800 255.276,269.503 255.874,272.100 256.153 C 273.365 256.289,275.369 256.513,276.553 256.651 C 283.971 257.516,288.788 255.980,289.299 252.586 C 289.862 248.856,289.612 145.804,289.032 142.000 C 288.150 136.221,285.766 134.394,281.200 136.000 C 279.524 136.590,277.897 136.777,274.370 136.787 C 268.582 136.803,268.000 137.198,268.000 141.108 C 268.000 143.228,267.856 143.708,266.945 144.619 C 265.904 145.659,265.893 145.732,266.097 150.028 C 266.316 154.656,266.272 154.795,264.257 155.794 C 263.552 156.144,263.363 156.678,263.193 158.810 C 263.078 160.234,262.763 161.793,262.493 162.274 C 262.222 162.754,262.000 164.141,262.000 165.355 C 262.000 168.604,261.451 169.533,259.445 169.680 C 257.918 169.791,257.791 169.891,257.676 171.076 C 257.482 173.082,254.818 175.600,252.889 175.600 C 250.905 175.600,249.600 176.534,249.600 177.953 C 249.600 178.589,249.217 179.413,248.700 179.890 C 247.371 181.114,231.223 182.096,221.200 181.561 C 213.773 181.165,205.022 181.058,191.537 181.199 L 183.275 181.286 182.537 180.167 C 181.336 178.345,180.872 172.769,181.260 164.817 C 181.459 160.740,181.436 150.752,181.205 140.817 C 180.987 131.458,180.801 118.670,180.791 112.400 C 180.771 99.639,180.680 99.200,178.036 99.200 C 176.929 99.200,176.800 99.074,176.800 98.000 C 176.800 96.933,176.933 96.800,178.000 96.800 C 179.010 96.800,179.200 96.643,179.200 95.810 C 179.200 95.265,179.559 94.230,179.999 93.510 C 180.598 92.527,180.797 91.492,180.799 89.363 C 180.803 80.460,181.258 76.791,182.432 76.183 C 183.652 75.553,289.157 75.652,296.600 76.291 L 300.200 76.600 300.400 78.380 L 300.600 80.159 303.200 80.596 C 304.630 80.836,306.193 81.250,306.674 81.516 C 307.154 81.782,308.186 82.000,308.966 82.000 C 311.612 82.000,313.600 83.099,313.600 84.563 C 313.600 86.109,314.215 86.800,315.591 86.800 C 316.172 86.800,317.551 87.498,318.751 88.400 C 320.262 89.535,321.275 90.000,322.240 90.000 C 323.517 90.000,323.600 90.082,323.600 91.346 C 323.600 92.086,323.931 93.121,324.336 93.646 C 325.206 94.773,326.000 96.955,326.000 98.217 C 326.000 99.234,326.681 99.600,328.571 99.600 C 330.406 99.600,331.073 100.565,331.339 103.600 C 331.554 106.062,331.809 107.864,332.229 109.900 C 332.348 110.474,332.707 110.800,333.221 110.800 C 333.664 110.800,334.638 111.411,335.385 112.158 L 336.743 113.517 337.211 121.658 C 337.753 131.095,338.279 133.196,340.100 133.199 C 340.972 133.200,341.201 133.387,341.205 134.100 C 341.228 137.750,343.501 138.896,350.309 138.690 C 355.128 138.545,360.290 137.872,361.591 137.220 C 363.006 136.511,363.155 130.798,362.449 104.200 C 362.024 88.190,361.886 87.200,360.066 87.200 L 358.913 87.200 358.651 83.700 C 358.507 81.775,358.287 75.520,358.161 69.800 C 357.911 58.326,357.730 57.245,355.827 55.793 L 354.519 54.796 221.547 54.805 C 79.653 54.816,86.000 54.893,86.000 53.150 C 86.000 52.102,85.875 52.000,84.600 52.000 C 83.313 52.000,83.200 52.096,83.200 53.192 M351.318 56.062 C 353.252 56.336,355.023 56.787,355.252 57.063 C 355.983 57.943,356.792 66.373,356.803 73.200 C 356.808 76.830,356.981 81.870,357.186 84.400 C 357.918 93.421,358.558 103.826,358.478 105.400 C 358.236 110.143,358.795 112.800,360.034 112.800 C 360.844 112.800,361.200 112.999,361.200 113.451 C 361.200 113.809,361.400 117.594,361.644 121.862 C 362.168 131.025,362.002 131.883,359.664 132.078 C 358.734 132.156,358.179 132.417,358.130 132.800 C 357.542 137.399,357.205 137.600,350.069 137.600 C 344.123 137.600,344.150 137.614,343.756 134.262 C 343.539 132.420,343.265 131.789,342.344 131.014 C 341.479 130.287,341.200 129.703,341.200 128.626 C 341.200 127.321,341.102 127.200,340.047 127.200 C 338.915 127.200,338.888 127.149,338.631 124.500 C 338.487 123.015,338.210 120.540,338.014 119.000 C 337.819 117.460,337.459 114.220,337.213 111.800 C 336.149 101.298,335.989 100.817,333.576 100.806 C 331.236 100.796,330.629 100.055,330.400 96.933 L 330.200 94.200 328.093 93.943 C 325.556 93.633,324.800 93.081,324.800 91.538 C 324.800 89.393,323.774 87.600,322.547 87.600 C 320.312 87.600,318.000 86.078,318.000 84.607 C 318.000 83.193,317.501 82.805,315.667 82.793 C 315.080 82.789,313.700 82.252,312.600 81.600 C 311.393 80.884,310.030 80.411,309.162 80.407 C 307.477 80.399,306.525 79.521,306.333 77.800 C 306.181 76.427,305.834 76.363,294.600 75.640 C 282.095 74.835,276.530 74.333,275.200 73.887 C 274.161 73.540,266.533 73.468,245.600 73.609 C 207.127 73.869,202.314 73.854,192.289 73.441 C 183.741 73.088,183.561 73.097,182.683 73.922 C 181.576 74.962,179.155 76.000,177.836 76.000 C 176.274 76.000,176.320 74.381,176.372 127.822 C 176.426 181.833,176.374 180.000,177.844 180.000 C 179.097 180.000,181.733 182.887,182.000 184.551 L 182.200 185.800 210.600 185.922 C 226.220 185.989,241.025 185.927,243.500 185.783 L 248.000 185.521 248.000 184.211 C 248.000 182.479,250.971 179.600,252.758 179.600 C 254.700 179.600,255.200 179.230,255.200 177.793 C 255.200 176.287,257.526 174.800,259.883 174.800 C 261.435 174.800,261.760 173.862,262.653 166.800 C 263.182 162.618,263.013 162.877,265.553 162.377 L 267.876 161.920 268.154 153.660 C 268.402 146.289,269.154 138.712,269.692 138.175 C 269.799 138.067,273.422 137.865,277.743 137.726 C 286.707 137.438,287.200 137.576,287.200 140.378 C 287.200 141.178,287.462 142.838,287.782 144.068 C 288.365 146.306,288.803 203.805,288.485 236.400 C 288.360 249.253,287.940 251.669,285.800 251.878 C 280.492 252.396,280.400 252.422,280.400 253.411 C 280.400 254.183,280.135 254.414,279.003 254.626 C 277.146 254.974,276.400 254.633,276.400 253.436 C 276.400 252.147,276.222 252.063,272.820 251.747 C 268.657 251.360,268.739 251.570,268.318 240.266 C 268.128 235.169,267.799 230.687,267.587 230.305 C 267.374 229.923,267.200 229.174,267.200 228.641 C 267.200 227.628,265.194 225.600,264.193 225.600 C 263.389 225.600,263.149 225.015,262.799 222.195 C 262.626 220.795,262.195 219.072,261.842 218.364 C 261.489 217.656,261.200 216.475,261.200 215.739 C 261.200 214.459,261.134 214.400,259.700 214.399 C 257.969 214.397,255.938 213.288,254.976 211.819 C 254.535 211.146,253.944 210.800,253.234 210.800 C 251.870 210.800,251.200 210.130,251.200 208.767 C 251.200 207.324,249.957 207.017,240.600 206.153 C 238.917 205.997,237.504 205.636,237.058 205.247 C 236.431 204.700,235.153 204.600,228.820 204.600 C 220.641 204.600,220.000 204.440,220.000 202.403 C 220.000 200.841,219.601 200.809,199.550 200.804 C 178.843 200.799,179.600 200.715,179.600 203.017 C 179.600 205.446,179.296 206.000,177.965 206.000 C 176.296 206.000,176.371 203.278,176.490 259.200 L 176.600 310.600 177.800 310.733 C 178.460 310.807,179.270 311.100,179.600 311.385 C 181.827 313.309,191.087 314.026,215.400 314.155 L 223.800 314.200 224.000 315.570 C 224.224 317.101,226.765 318.767,228.910 318.789 C 230.503 318.805,230.844 320.087,230.712 325.553 L 230.600 330.190 228.492 330.493 C 227.333 330.659,225.736 331.067,224.944 331.398 C 222.766 332.308,84.339 332.316,80.400 331.406 C 78.970 331.076,77.305 330.711,76.700 330.595 L 75.600 330.385 75.600 325.611 C 75.600 319.921,75.965 318.800,77.815 318.800 C 78.523 318.800,79.310 318.549,79.564 318.243 C 79.819 317.937,80.550 317.469,81.191 317.204 C 82.076 316.837,82.385 316.419,82.478 315.461 L 82.600 314.200 89.000 313.903 C 96.286 313.565,108.054 313.287,117.295 313.235 L 123.590 313.200 124.580 311.631 L 125.570 310.063 125.817 212.331 C 125.952 158.579,126.159 108.480,126.276 101.000 C 126.632 78.350,126.606 76.747,125.876 76.338 C 125.526 76.143,124.948 75.690,124.591 75.334 C 123.585 74.328,117.256 73.495,113.200 73.834 C 111.330 73.990,103.868 74.156,96.618 74.202 C 81.825 74.295,82.044 74.339,82.013 71.300 C 82.006 70.585,81.802 70.000,81.560 70.000 C 81.319 70.000,80.554 69.739,79.860 69.421 C 79.167 69.102,78.060 68.787,77.400 68.721 L 76.200 68.600 76.088 63.697 C 75.961 58.190,76.245 57.200,77.947 57.200 C 78.563 57.200,79.199 57.065,79.362 56.900 C 80.879 55.357,77.088 55.396,215.497 55.482 C 318.557 55.546,348.578 55.674,351.318 56.062 " stroke="none" fill="#415570" fill-rule="evenodd"></path><path id="path4" d="M81.510 56.622 C 79.890 57.504,79.632 58.296,79.350 63.267 L 79.093 67.800 80.846 68.790 L 82.600 69.779 100.400 69.849 C 110.190 69.888,119.505 69.937,121.100 69.960 L 124.000 70.000 124.000 71.181 C 124.000 73.808,125.540 75.427,128.524 75.936 L 130.200 76.222 130.325 168.611 C 130.393 219.425,130.327 272.205,130.177 285.900 L 129.904 310.800 128.716 310.800 C 127.881 310.800,126.881 311.352,125.353 312.658 L 123.178 314.516 119.369 314.289 C 113.191 313.920,111.200 314.254,111.200 315.656 C 111.200 316.776,111.154 316.800,109.000 316.800 C 106.822 316.800,106.800 316.788,106.800 315.600 L 106.800 314.400 103.600 314.400 L 100.400 314.400 100.400 315.539 L 100.400 316.677 95.537 316.939 C 92.863 317.082,88.854 317.200,86.628 317.200 C 82.310 317.200,80.105 318.178,79.397 320.409 C 79.222 320.960,78.790 321.200,77.973 321.200 C 76.812 321.200,76.800 321.224,76.797 323.500 C 76.795 324.765,76.680 326.745,76.541 327.900 C 76.292 329.972,76.303 330.000,77.357 330.000 C 77.944 330.000,79.516 330.367,80.848 330.816 C 84.184 331.940,222.544 331.882,225.400 330.755 L 227.000 330.124 227.357 325.623 L 227.714 321.122 225.637 319.161 L 223.559 317.200 212.280 317.195 C 199.384 317.188,199.200 317.165,199.200 315.553 C 199.200 314.401,199.199 314.400,196.600 314.400 L 194.000 314.400 194.000 315.600 L 194.000 316.800 188.600 316.800 L 183.200 316.800 183.200 315.632 C 183.200 314.370,181.177 313.387,178.023 313.118 C 176.839 313.017,176.599 312.815,176.307 311.682 C 175.869 309.980,176.092 201.374,176.534 200.933 C 176.914 200.555,235.508 200.590,237.019 200.969 C 237.766 201.157,238.000 201.480,238.000 202.328 C 238.000 203.677,238.652 204.400,239.868 204.400 C 240.367 204.400,241.478 204.766,242.336 205.214 C 243.195 205.661,245.226 206.194,246.849 206.398 C 255.585 207.496,255.200 207.388,255.200 208.746 C 255.200 211.390,257.434 213.600,260.107 213.600 C 261.395 213.600,262.000 214.326,262.000 215.872 C 262.000 217.432,263.126 220.468,263.872 220.920 C 264.162 221.096,264.400 221.749,264.400 222.372 C 264.400 223.381,264.597 223.555,266.200 223.958 C 267.190 224.208,268.003 224.454,268.007 224.506 C 268.011 224.558,268.283 230.152,268.613 236.937 C 269.311 251.318,269.104 250.608,272.685 250.949 C 274.178 251.091,276.084 251.317,276.920 251.450 C 280.757 252.062,285.999 251.221,286.828 249.860 C 287.739 248.366,288.067 146.869,287.168 144.526 C 286.931 143.907,286.616 142.320,286.468 141.000 L 286.200 138.600 283.800 138.467 C 282.480 138.394,278.869 138.456,275.777 138.605 L 270.153 138.876 269.659 141.538 C 269.388 143.002,269.018 148.076,268.838 152.812 C 268.480 162.190,268.352 163.015,267.205 163.315 C 266.782 163.425,265.894 164.390,265.232 165.458 C 264.570 166.526,263.866 167.591,263.668 167.825 C 262.856 168.785,262.400 170.022,262.398 171.274 C 262.395 173.083,261.654 175.612,261.075 175.792 C 260.814 175.874,259.745 176.055,258.700 176.195 C 256.859 176.441,256.800 176.491,256.800 177.797 C 256.800 179.393,255.175 180.800,253.331 180.800 C 251.369 180.800,249.200 182.585,249.200 184.200 C 249.200 185.209,248.962 185.704,248.300 186.069 C 247.219 186.667,184.450 186.830,179.769 186.248 L 176.938 185.896 176.474 182.448 C 175.822 177.612,175.689 76.677,176.332 75.100 C 176.674 74.260,177.051 74.000,177.928 74.000 C 179.378 74.000,180.400 72.892,180.400 71.321 C 180.400 70.226,180.550 70.080,181.900 69.857 C 183.897 69.527,271.509 69.532,276.500 69.862 L 280.400 70.121 280.400 71.255 C 280.400 72.547,282.272 73.600,284.569 73.600 C 285.268 73.600,286.041 73.801,286.287 74.047 C 286.533 74.293,289.944 74.758,293.867 75.079 C 308.589 76.284,310.400 76.599,310.400 77.957 C 310.400 79.300,314.134 82.000,315.991 82.000 C 318.203 82.000,320.000 83.179,320.000 84.631 C 320.000 86.014,320.518 86.400,322.371 86.400 C 323.978 86.400,326.000 89.139,326.000 91.316 C 326.000 92.401,327.348 93.200,329.176 93.200 C 330.519 93.200,330.740 93.642,331.061 96.967 C 331.339 99.851,331.866 100.398,334.376 100.406 C 337.069 100.415,337.066 100.409,337.317 106.600 C 337.442 109.680,337.722 112.830,337.938 113.600 C 338.155 114.370,338.451 116.205,338.596 117.677 C 338.856 120.328,338.871 120.355,340.129 120.477 C 341.213 120.582,341.418 120.777,341.526 121.800 C 341.595 122.460,341.910 123.888,342.226 124.973 C 342.542 126.058,342.800 127.640,342.800 128.489 C 342.800 129.410,343.126 130.473,343.608 131.125 C 344.059 131.735,344.528 133.187,344.669 134.409 C 344.991 137.198,344.971 137.188,350.200 137.188 C 355.421 137.188,355.609 137.097,356.039 134.380 C 356.266 132.945,356.716 131.914,357.452 131.146 L 358.532 130.018 358.041 122.309 C 357.771 118.069,357.392 113.340,357.199 111.800 C 357.006 110.260,356.745 102.610,356.619 94.800 C 356.220 70.113,355.949 63.105,355.348 61.920 C 355.047 61.326,354.800 60.201,354.800 59.420 C 354.800 58.166,354.681 58.000,353.784 58.000 C 353.225 58.000,352.220 57.595,351.550 57.100 L 350.333 56.200 216.467 56.114 C 98.810 56.039,82.468 56.101,81.510 56.622 M140.400 57.302 C 141.390 57.333,143.550 57.290,145.200 57.207 C 146.850 57.123,193.169 57.086,248.132 57.123 L 348.064 57.191 349.232 58.023 C 350.116 58.652,350.400 59.173,350.400 60.165 C 350.400 61.780,351.347 62.695,353.200 62.869 L 354.600 63.000 354.869 66.400 C 355.018 68.270,355.345 83.373,355.598 99.962 L 356.058 130.124 355.096 131.086 C 354.134 132.047,354.130 132.048,349.767 131.582 C 344.229 130.992,344.560 131.392,344.217 124.896 C 344.057 121.873,343.675 118.680,343.369 117.800 C 343.062 116.920,342.809 115.734,342.806 115.164 C 342.800 114.041,341.523 113.200,339.826 113.200 C 338.681 113.200,338.530 112.531,338.158 105.800 C 337.822 99.715,337.831 99.731,334.603 99.386 L 332.000 99.107 331.986 96.653 C 331.978 95.286,331.719 93.757,331.400 93.200 C 331.086 92.650,330.820 91.480,330.809 90.600 C 330.775 87.887,330.444 87.200,329.167 87.200 C 327.058 87.200,325.200 86.007,325.200 84.652 C 325.200 83.119,323.796 81.600,322.380 81.600 C 321.786 81.600,320.282 81.150,319.038 80.600 C 317.795 80.050,316.347 79.600,315.821 79.600 C 314.089 79.600,313.600 79.190,313.600 77.737 C 313.600 75.838,312.176 75.310,306.161 74.975 C 302.595 74.776,301.068 74.520,300.077 73.955 C 299.279 73.499,297.981 73.200,296.803 73.200 C 293.931 73.200,292.800 72.661,292.800 71.291 C 292.800 69.126,291.373 69.068,234.000 68.897 C 182.974 68.744,176.063 68.844,175.821 69.738 C 174.828 73.408,174.732 79.023,174.770 130.953 C 174.816 193.353,174.393 187.152,178.642 187.710 C 182.215 188.179,247.481 188.026,248.745 187.545 C 250.432 186.903,251.200 185.976,251.200 184.581 C 251.200 183.195,251.707 182.806,253.533 182.791 C 254.120 182.786,255.385 182.426,256.344 181.991 C 257.303 181.556,258.781 181.200,259.630 181.200 C 261.869 181.200,262.470 179.712,263.062 172.713 C 263.308 169.799,263.240 169.870,266.277 169.398 C 268.760 169.012,268.738 169.107,269.193 157.175 C 269.723 143.274,269.348 144.594,272.893 144.166 C 275.875 143.806,285.563 143.830,285.931 144.198 C 286.993 145.260,287.226 247.090,286.170 248.702 C 285.507 249.714,281.788 249.789,272.699 248.974 C 269.378 248.676,269.744 250.316,269.253 233.531 C 268.818 218.644,268.699 218.000,266.380 218.000 C 264.132 218.000,263.200 217.354,263.200 215.797 C 263.200 213.201,261.432 210.400,259.793 210.400 C 258.488 210.400,258.400 210.318,258.399 209.100 C 258.399 207.581,255.345 206.000,252.411 206.000 C 250.596 206.000,248.969 204.319,248.733 202.200 C 248.608 201.073,248.466 200.981,246.400 200.692 C 239.047 199.665,177.502 199.337,175.730 200.316 L 174.860 200.796 174.730 255.698 C 174.658 285.894,174.750 311.320,174.933 312.200 C 175.115 313.080,175.359 314.520,175.474 315.400 C 175.845 318.253,178.422 318.740,193.400 318.784 C 210.283 318.835,223.310 319.479,223.912 320.293 C 224.275 320.784,224.391 322.325,224.312 325.593 L 224.200 330.200 221.200 330.448 C 217.310 330.769,84.085 330.865,82.900 330.548 C 81.649 330.213,81.496 321.380,82.722 320.270 C 83.775 319.318,93.303 318.803,109.926 318.801 C 118.885 318.800,123.930 318.652,124.450 318.373 C 124.889 318.138,126.362 317.823,127.724 317.673 L 130.200 317.400 130.414 315.800 C 130.532 314.920,130.761 313.985,130.924 313.722 C 131.311 313.098,131.283 75.797,130.896 72.406 L 130.600 69.812 127.200 69.341 C 125.005 69.037,116.640 68.853,103.600 68.822 C 87.479 68.784,83.259 68.667,82.700 68.243 C 81.600 67.408,81.961 59.079,83.149 57.890 C 83.844 57.195,123.625 56.786,140.400 57.302 " stroke="none" fill="#24344c" fill-rule="evenodd"></path></g></svg>