<?xml version="1.0" standalone="no"?>
<!DOCTYPE svg PUBLIC "-//W3C//DTD SVG 20010904//EN"
 "http://www.w3.org/TR/2001/REC-SVG-20010904/DTD/svg10.dtd">
<svg version="1.0" xmlns="http://www.w3.org/2000/svg"
 width="2560.000000pt" height="2560.000000pt" viewBox="0 0 2560.000000 2560.000000"
 preserveAspectRatio="xMidYMid meet">

<g transform="translate(0.000000,2560.000000) scale(0.100000,-0.100000)"
fill="#000000" stroke="none">
<path d="M10490 16032 c0 -106 -11 -97 138 -107 131 -8 315 -46 384 -77 69
-32 143 -105 173 -171 29 -65 51 -169 65 -312 14 -154 14 -5087 -1 -5245 -26
-283 -81 -400 -221 -471 -91 -46 -221 -72 -465 -94 l-73 -7 0 -89 0 -90 258 8
c334 10 1660 10 2055 0 l307 -8 0 89 0 90 -97 7 c-156 11 -358 34 -431 49
-246 52 -358 162 -408 399 -28 133 -34 373 -34 1465 l0 1102 413 0 c231 0 441
-5 477 -10 350 -55 576 -284 654 -660 8 -41 27 -171 41 -288 14 -118 28 -233
32 -258 l6 -44 109 0 110 0 -6 58 c-9 87 -35 594 -46 897 -17 491 -9 1331 16
1668 l7 87 -112 0 c-82 0 -111 -3 -111 -12 0 -26 -42 -308 -66 -448 -48 -275
-91 -391 -190 -521 -120 -157 -276 -243 -484 -269 -46 -5 -257 -10 -467 -10
l-383 0 0 1178 c0 666 5 1252 10 1351 28 474 115 574 535 610 155 14 924 14
1080 0 339 -29 536 -87 702 -205 285 -203 395 -501 502 -1349 l27 -220 109 -3
108 -3 -6 58 c-20 190 -29 667 -18 993 9 303 39 781 57 909 l6 44 -134 -7
c-485 -25 -3684 -25 -4425 0 l-203 7 0 -91z"/>
</g>
</svg>
